<mxfile host="app.diagrams.net" modified="2022-02-20T17:09:04.733Z" agent="5.0 (Windows NT 10.0; Win64; x64) AppleWebKit/537.36 (KHTML, like Gecko) Chrome/98.0.4758.102 Safari/537.36 Edg/98.0.1108.56" etag="zX-zd2YAXRkJtwDBRJgs" version="16.6.1" type="github">
  <diagram id="Rzt9a8joFgOcegN6ocFM" name="Page-1">
    <mxGraphModel dx="1042" dy="633" grid="1" gridSize="10" guides="1" tooltips="1" connect="1" arrows="1" fold="1" page="1" pageScale="1" pageWidth="827" pageHeight="1169" math="0" shadow="0">
      <root>
        <mxCell id="0" />
        <mxCell id="1" parent="0" />
        <mxCell id="bqSCgphzB1fXigl6qMUR-4" value="" style="rounded=1;whiteSpace=wrap;html=1;" parent="1" vertex="1">
          <mxGeometry x="58" y="90" width="632" height="320" as="geometry" />
        </mxCell>
        <mxCell id="bqSCgphzB1fXigl6qMUR-1" value="" style="outlineConnect=0;dashed=0;verticalLabelPosition=bottom;verticalAlign=top;align=center;html=1;shape=mxgraph.aws3.ec2;fillColor=#F58534;gradientColor=none;" parent="1" vertex="1">
          <mxGeometry x="320" y="153" width="76.5" height="93" as="geometry" />
        </mxCell>
        <mxCell id="bqSCgphzB1fXigl6qMUR-2" value="" style="outlineConnect=0;dashed=0;verticalLabelPosition=bottom;verticalAlign=top;align=center;html=1;shape=mxgraph.aws3.rds;fillColor=#2E73B8;gradientColor=none;" parent="1" vertex="1">
          <mxGeometry x="97" y="160" width="72" height="81" as="geometry" />
        </mxCell>
        <mxCell id="bqSCgphzB1fXigl6qMUR-3" value="" style="outlineConnect=0;dashed=0;verticalLabelPosition=bottom;verticalAlign=top;align=center;html=1;shape=mxgraph.aws3.bucket;fillColor=#E05243;gradientColor=none;" parent="1" vertex="1">
          <mxGeometry x="578" y="170" width="60" height="61.5" as="geometry" />
        </mxCell>
        <mxCell id="bqSCgphzB1fXigl6qMUR-5" value="" style="points=[];aspect=fixed;html=1;align=center;shadow=0;dashed=0;image;image=img/lib/allied_telesis/computer_and_terminals/Personal_Computer.svg;" parent="1" vertex="1">
          <mxGeometry x="750" y="173" width="45.6" height="61.800000000000004" as="geometry" />
        </mxCell>
        <mxCell id="bqSCgphzB1fXigl6qMUR-6" value="" style="outlineConnect=0;dashed=0;verticalLabelPosition=bottom;verticalAlign=top;align=center;html=1;shape=mxgraph.aws3.cloud_2;fillColor=#F58534;gradientColor=none;" parent="1" vertex="1">
          <mxGeometry x="110" y="60" width="50" height="50" as="geometry" />
        </mxCell>
        <mxCell id="bqSCgphzB1fXigl6qMUR-9" value="" style="endArrow=none;html=1;rounded=0;" parent="1" source="bqSCgphzB1fXigl6qMUR-2" target="bqSCgphzB1fXigl6qMUR-1" edge="1">
          <mxGeometry width="50" height="50" relative="1" as="geometry">
            <mxPoint x="220" y="330" as="sourcePoint" />
            <mxPoint x="270" y="280" as="targetPoint" />
          </mxGeometry>
        </mxCell>
        <mxCell id="bqSCgphzB1fXigl6qMUR-10" value="" style="endArrow=none;html=1;rounded=0;entryX=0.06;entryY=0.5;entryDx=0;entryDy=0;entryPerimeter=0;" parent="1" source="bqSCgphzB1fXigl6qMUR-1" target="bqSCgphzB1fXigl6qMUR-3" edge="1">
          <mxGeometry width="50" height="50" relative="1" as="geometry">
            <mxPoint x="350" y="370" as="sourcePoint" />
            <mxPoint x="400" y="320" as="targetPoint" />
          </mxGeometry>
        </mxCell>
        <mxCell id="bqSCgphzB1fXigl6qMUR-11" value="" style="endArrow=none;html=1;rounded=0;entryX=-0.025;entryY=0.436;entryDx=0;entryDy=0;entryPerimeter=0;exitX=0.94;exitY=0.5;exitDx=0;exitDy=0;exitPerimeter=0;" parent="1" source="bqSCgphzB1fXigl6qMUR-3" target="bqSCgphzB1fXigl6qMUR-5" edge="1">
          <mxGeometry width="50" height="50" relative="1" as="geometry">
            <mxPoint x="690" y="320" as="sourcePoint" />
            <mxPoint x="620" y="420" as="targetPoint" />
          </mxGeometry>
        </mxCell>
        <mxCell id="bqSCgphzB1fXigl6qMUR-12" value="Elastic Beanstalk&amp;nbsp;&lt;br&gt;EC2" style="text;html=1;strokeColor=none;fillColor=none;align=center;verticalAlign=middle;whiteSpace=wrap;rounded=0;" parent="1" vertex="1">
          <mxGeometry x="328.25" y="270" width="60" height="30" as="geometry" />
        </mxCell>
        <mxCell id="bqSCgphzB1fXigl6qMUR-13" value="S3" style="text;html=1;strokeColor=none;fillColor=none;align=center;verticalAlign=middle;whiteSpace=wrap;rounded=0;" parent="1" vertex="1">
          <mxGeometry x="578" y="260" width="60" height="30" as="geometry" />
        </mxCell>
        <mxCell id="bqSCgphzB1fXigl6qMUR-14" value="RDS&lt;br&gt;Postgres DB" style="text;html=1;strokeColor=none;fillColor=none;align=center;verticalAlign=middle;whiteSpace=wrap;rounded=0;" parent="1" vertex="1">
          <mxGeometry x="103" y="270" width="60" height="30" as="geometry" />
        </mxCell>
        <mxCell id="bqSCgphzB1fXigl6qMUR-15" value="User" style="text;html=1;strokeColor=none;fillColor=none;align=center;verticalAlign=middle;whiteSpace=wrap;rounded=0;" parent="1" vertex="1">
          <mxGeometry x="742.8" y="260" width="60" height="30" as="geometry" />
        </mxCell>
        <mxCell id="CZdlWOLGmcwC6h2nwBLU-1" value="" style="points=[];aspect=fixed;html=1;align=center;shadow=0;dashed=0;image;image=img/lib/allied_telesis/computer_and_terminals/Personal_Computer.svg;" vertex="1" parent="1">
          <mxGeometry x="730" y="668.6" width="45.6" height="61.800000000000004" as="geometry" />
        </mxCell>
        <mxCell id="CZdlWOLGmcwC6h2nwBLU-2" value="Dev" style="text;html=1;strokeColor=none;fillColor=none;align=center;verticalAlign=middle;whiteSpace=wrap;rounded=0;" vertex="1" parent="1">
          <mxGeometry x="722.8" y="730.4" width="60" height="30" as="geometry" />
        </mxCell>
        <mxCell id="CZdlWOLGmcwC6h2nwBLU-3" value="" style="dashed=0;outlineConnect=0;html=1;align=center;labelPosition=center;verticalLabelPosition=bottom;verticalAlign=top;shape=mxgraph.weblogos.github" vertex="1" parent="1">
          <mxGeometry x="590" y="659" width="75" height="75" as="geometry" />
        </mxCell>
        <mxCell id="CZdlWOLGmcwC6h2nwBLU-5" value="" style="shape=image;imageAspect=0;aspect=fixed;verticalLabelPosition=bottom;verticalAlign=top;image=https://avatars.githubusercontent.com/u/1231870?s=200&amp;v=4;" vertex="1" parent="1">
          <mxGeometry x="450" y="661.5" width="70" height="70" as="geometry" />
        </mxCell>
        <mxCell id="CZdlWOLGmcwC6h2nwBLU-6" value="" style="outlineConnect=0;dashed=0;verticalLabelPosition=bottom;verticalAlign=top;align=center;html=1;shape=mxgraph.aws3.elastic_beanstalk;fillColor=#F58534;gradientColor=none;" vertex="1" parent="1">
          <mxGeometry x="300" y="650" width="67.5" height="93" as="geometry" />
        </mxCell>
        <mxCell id="CZdlWOLGmcwC6h2nwBLU-7" value="" style="outlineConnect=0;dashed=0;verticalLabelPosition=bottom;verticalAlign=top;align=center;html=1;shape=mxgraph.aws3.bucket;fillColor=#E05243;gradientColor=none;" vertex="1" parent="1">
          <mxGeometry x="305" y="470" width="60" height="61.5" as="geometry" />
        </mxCell>
        <mxCell id="CZdlWOLGmcwC6h2nwBLU-8" value="" style="outlineConnect=0;dashed=0;verticalLabelPosition=bottom;verticalAlign=top;align=center;html=1;shape=mxgraph.aws3.bucket;fillColor=#E05243;gradientColor=none;" vertex="1" parent="1">
          <mxGeometry x="303.75" y="870" width="60" height="61.5" as="geometry" />
        </mxCell>
        <mxCell id="CZdlWOLGmcwC6h2nwBLU-9" value="" style="outlineConnect=0;dashed=0;verticalLabelPosition=bottom;verticalAlign=top;align=center;html=1;shape=mxgraph.aws3.rds;fillColor=#2E73B8;gradientColor=none;" vertex="1" parent="1">
          <mxGeometry x="25" y="656" width="72" height="81" as="geometry" />
        </mxCell>
        <mxCell id="CZdlWOLGmcwC6h2nwBLU-10" value="" style="outlineConnect=0;dashed=0;verticalLabelPosition=bottom;verticalAlign=top;align=center;html=1;shape=mxgraph.aws3.ec2;fillColor=#F58534;gradientColor=none;" vertex="1" parent="1">
          <mxGeometry x="150" y="650" width="76.5" height="93" as="geometry" />
        </mxCell>
        <mxCell id="CZdlWOLGmcwC6h2nwBLU-11" value="" style="endArrow=classic;html=1;rounded=0;entryX=1;entryY=0.5;entryDx=0;entryDy=0;entryPerimeter=0;exitX=0;exitY=0.5;exitDx=0;exitDy=0;exitPerimeter=0;" edge="1" parent="1" source="CZdlWOLGmcwC6h2nwBLU-10" target="CZdlWOLGmcwC6h2nwBLU-9">
          <mxGeometry width="50" height="50" relative="1" as="geometry">
            <mxPoint x="110" y="850" as="sourcePoint" />
            <mxPoint x="160" y="800" as="targetPoint" />
          </mxGeometry>
        </mxCell>
        <mxCell id="CZdlWOLGmcwC6h2nwBLU-12" value="" style="endArrow=classic;html=1;rounded=0;entryX=1;entryY=0.5;entryDx=0;entryDy=0;entryPerimeter=0;exitX=0.26;exitY=0.5;exitDx=0;exitDy=0;exitPerimeter=0;" edge="1" parent="1" source="CZdlWOLGmcwC6h2nwBLU-6" target="CZdlWOLGmcwC6h2nwBLU-10">
          <mxGeometry width="50" height="50" relative="1" as="geometry">
            <mxPoint x="160" y="910" as="sourcePoint" />
            <mxPoint x="210" y="860" as="targetPoint" />
          </mxGeometry>
        </mxCell>
        <mxCell id="CZdlWOLGmcwC6h2nwBLU-13" value="" style="endArrow=classic;html=1;rounded=0;exitX=0;exitY=0.5;exitDx=0;exitDy=0;entryX=0.745;entryY=0.5;entryDx=0;entryDy=0;entryPerimeter=0;" edge="1" parent="1" source="CZdlWOLGmcwC6h2nwBLU-5" target="CZdlWOLGmcwC6h2nwBLU-6">
          <mxGeometry width="50" height="50" relative="1" as="geometry">
            <mxPoint x="470" y="890" as="sourcePoint" />
            <mxPoint x="520" y="840" as="targetPoint" />
          </mxGeometry>
        </mxCell>
        <mxCell id="CZdlWOLGmcwC6h2nwBLU-14" value="" style="endArrow=classic;html=1;rounded=0;entryX=1;entryY=0.5;entryDx=0;entryDy=0;" edge="1" parent="1" target="CZdlWOLGmcwC6h2nwBLU-5">
          <mxGeometry width="50" height="50" relative="1" as="geometry">
            <mxPoint x="590" y="697" as="sourcePoint" />
            <mxPoint x="600" y="820" as="targetPoint" />
          </mxGeometry>
        </mxCell>
        <mxCell id="CZdlWOLGmcwC6h2nwBLU-15" value="" style="endArrow=classic;html=1;rounded=0;exitX=0.006;exitY=0.431;exitDx=0;exitDy=0;exitPerimeter=0;" edge="1" parent="1" source="CZdlWOLGmcwC6h2nwBLU-1" target="CZdlWOLGmcwC6h2nwBLU-3">
          <mxGeometry width="50" height="50" relative="1" as="geometry">
            <mxPoint x="630" y="860" as="sourcePoint" />
            <mxPoint x="700" y="710" as="targetPoint" />
          </mxGeometry>
        </mxCell>
        <mxCell id="CZdlWOLGmcwC6h2nwBLU-16" value="Pushing changes to remote repo" style="text;html=1;strokeColor=none;fillColor=none;align=center;verticalAlign=middle;whiteSpace=wrap;rounded=0;" vertex="1" parent="1">
          <mxGeometry x="670" y="650" width="60" height="30" as="geometry" />
        </mxCell>
        <mxCell id="CZdlWOLGmcwC6h2nwBLU-18" value="detecting Changes" style="text;html=1;strokeColor=none;fillColor=none;align=center;verticalAlign=middle;whiteSpace=wrap;rounded=0;" vertex="1" parent="1">
          <mxGeometry x="530" y="650" width="60" height="30" as="geometry" />
        </mxCell>
        <mxCell id="CZdlWOLGmcwC6h2nwBLU-19" value="" style="endArrow=classic;html=1;rounded=0;exitX=0.5;exitY=0;exitDx=0;exitDy=0;" edge="1" parent="1" source="CZdlWOLGmcwC6h2nwBLU-5">
          <mxGeometry width="50" height="50" relative="1" as="geometry">
            <mxPoint x="390" y="690" as="sourcePoint" />
            <mxPoint x="430" y="600" as="targetPoint" />
          </mxGeometry>
        </mxCell>
        <mxCell id="CZdlWOLGmcwC6h2nwBLU-20" value="" style="endArrow=classic;html=1;rounded=0;entryX=0.94;entryY=0.5;entryDx=0;entryDy=0;entryPerimeter=0;" edge="1" parent="1" target="CZdlWOLGmcwC6h2nwBLU-7">
          <mxGeometry width="50" height="50" relative="1" as="geometry">
            <mxPoint x="410" y="570" as="sourcePoint" />
            <mxPoint x="360" y="523" as="targetPoint" />
          </mxGeometry>
        </mxCell>
        <mxCell id="CZdlWOLGmcwC6h2nwBLU-21" value="" style="endArrow=classic;html=1;rounded=0;" edge="1" parent="1" source="CZdlWOLGmcwC6h2nwBLU-7">
          <mxGeometry width="50" height="50" relative="1" as="geometry">
            <mxPoint x="425" y="594.5" as="sourcePoint" />
            <mxPoint x="335" y="560" as="targetPoint" />
          </mxGeometry>
        </mxCell>
        <mxCell id="CZdlWOLGmcwC6h2nwBLU-22" value="" style="endArrow=classic;html=1;rounded=0;entryX=0.5;entryY=0;entryDx=0;entryDy=0;entryPerimeter=0;" edge="1" parent="1" target="CZdlWOLGmcwC6h2nwBLU-6">
          <mxGeometry width="50" height="50" relative="1" as="geometry">
            <mxPoint x="334" y="600" as="sourcePoint" />
            <mxPoint x="340" y="570" as="targetPoint" />
          </mxGeometry>
        </mxCell>
        <mxCell id="CZdlWOLGmcwC6h2nwBLU-25" value="Building and Uploading Backend" style="text;html=1;strokeColor=none;fillColor=none;align=center;verticalAlign=middle;whiteSpace=wrap;rounded=0;" vertex="1" parent="1">
          <mxGeometry x="414" y="810" width="60" height="30" as="geometry" />
        </mxCell>
        <mxCell id="CZdlWOLGmcwC6h2nwBLU-26" value="" style="endArrow=classic;html=1;rounded=0;exitX=0.5;exitY=1;exitDx=0;exitDy=0;" edge="1" parent="1" source="CZdlWOLGmcwC6h2nwBLU-5">
          <mxGeometry width="50" height="50" relative="1" as="geometry">
            <mxPoint x="495" y="671.5" as="sourcePoint" />
            <mxPoint x="450" y="790" as="targetPoint" />
          </mxGeometry>
        </mxCell>
        <mxCell id="CZdlWOLGmcwC6h2nwBLU-27" value="" style="endArrow=classic;html=1;rounded=0;exitX=0.5;exitY=1;exitDx=0;exitDy=0;entryX=0.94;entryY=0.5;entryDx=0;entryDy=0;entryPerimeter=0;" edge="1" parent="1" target="CZdlWOLGmcwC6h2nwBLU-8">
          <mxGeometry width="50" height="50" relative="1" as="geometry">
            <mxPoint x="414" y="840" as="sourcePoint" />
            <mxPoint x="379" y="898.5" as="targetPoint" />
          </mxGeometry>
        </mxCell>
        <mxCell id="CZdlWOLGmcwC6h2nwBLU-28" value="" style="endArrow=classic;html=1;rounded=0;exitX=0.5;exitY=0;exitDx=0;exitDy=0;exitPerimeter=0;" edge="1" parent="1" source="CZdlWOLGmcwC6h2nwBLU-8" target="CZdlWOLGmcwC6h2nwBLU-6">
          <mxGeometry width="50" height="50" relative="1" as="geometry">
            <mxPoint x="327.54999999999995" y="706.5" as="sourcePoint" />
            <mxPoint x="236.5" y="706.5" as="targetPoint" />
          </mxGeometry>
        </mxCell>
        <mxCell id="CZdlWOLGmcwC6h2nwBLU-31" value="&lt;span style=&quot;color: rgb(0 , 0 , 0) ; font-family: &amp;#34;helvetica&amp;#34; ; font-size: 12px ; font-style: normal ; font-weight: 400 ; letter-spacing: normal ; text-indent: 0px ; text-transform: none ; word-spacing: 0px ; background-color: rgb(248 , 249 , 250) ; display: inline ; float: none&quot;&gt;Building and Deploying Frontend&lt;/span&gt;" style="text;whiteSpace=wrap;html=1;align=center;" vertex="1" parent="1">
          <mxGeometry x="380" y="565" width="110" height="40" as="geometry" />
        </mxCell>
        <mxCell id="CZdlWOLGmcwC6h2nwBLU-32" value="&lt;span style=&quot;color: rgb(0 , 0 , 0) ; font-family: &amp;#34;helvetica&amp;#34; ; font-size: 12px ; font-style: normal ; font-weight: 400 ; letter-spacing: normal ; text-align: center ; text-indent: 0px ; text-transform: none ; word-spacing: 0px ; background-color: rgb(248 , 249 , 250) ; display: inline ; float: none&quot;&gt;Elastic Beanstalk&lt;/span&gt;" style="text;whiteSpace=wrap;html=1;" vertex="1" parent="1">
          <mxGeometry x="274" y="700.4" width="200" height="30" as="geometry" />
        </mxCell>
        <mxCell id="CZdlWOLGmcwC6h2nwBLU-33" value="RDS&lt;br&gt;Postgres DB" style="text;html=1;strokeColor=none;fillColor=none;align=center;verticalAlign=middle;whiteSpace=wrap;rounded=0;" vertex="1" parent="1">
          <mxGeometry x="25" y="760.4" width="60" height="30" as="geometry" />
        </mxCell>
        <mxCell id="CZdlWOLGmcwC6h2nwBLU-34" value="EC2" style="text;html=1;strokeColor=none;fillColor=none;align=center;verticalAlign=middle;whiteSpace=wrap;rounded=0;" vertex="1" parent="1">
          <mxGeometry x="158.25" y="760.4" width="60" height="30" as="geometry" />
        </mxCell>
        <mxCell id="CZdlWOLGmcwC6h2nwBLU-35" value="&lt;span style=&quot;color: rgb(0 , 0 , 0) ; font-family: &amp;#34;helvetica&amp;#34; ; font-size: 12px ; font-style: normal ; font-weight: 400 ; letter-spacing: normal ; text-indent: 0px ; text-transform: none ; word-spacing: 0px ; background-color: rgb(248 , 249 , 250) ; display: inline ; float: none&quot;&gt;Fetching Data from API&lt;/span&gt;" style="text;whiteSpace=wrap;html=1;align=center;" vertex="1" parent="1">
          <mxGeometry x="278.75" y="560" width="110" height="40" as="geometry" />
        </mxCell>
      </root>
    </mxGraphModel>
  </diagram>
</mxfile>
